<?xml version="1.0" standalone="no"?>
<!DOCTYPE svg PUBLIC "-//W3C//DTD SVG 20010904//EN"
 "http://www.w3.org/TR/2001/REC-SVG-20010904/DTD/svg10.dtd">
<svg version="1.0" xmlns="http://www.w3.org/2000/svg"
 width="64.000000pt" height="64.000000pt" viewBox="0 0 64.000000 64.000000"
 preserveAspectRatio="xMidYMid meet">

<g transform="translate(0.000000,64.000000) scale(0.100000,-0.100000)"
fill="#FFFFFF" stroke="none">
<path d="M77 543 c-3 -5 4 -32 15 -60 15 -41 36 -68 88 -115 52 -47 66 -66 58
-75 -7 -8 -23 -11 -48 -7 -47 8 -62 -17 -25 -42 l25 -16 -50 -55 c-51 -56 -62
-86 -34 -97 23 -9 21 -10 81 46 l55 53 15 -23 c29 -43 63 -19 44 31 -8 19 -6
28 5 38 22 18 39 -4 39 -49 0 -27 5 -37 18 -40 12 -2 20 4 24 17 3 12 9 21 13
21 5 0 34 -23 65 -52 45 -41 60 -50 73 -42 29 19 24 33 -27 87 -56 60 -61 72
-30 80 14 4 19 12 17 24 -3 14 -12 17 -45 15 -63 -4 -60 17 14 89 88 85 131
179 83 179 -42 0 -97 -33 -162 -98 l-68 -66 -62 66 c-60 64 -114 98 -157 98
-11 0 -22 -3 -24 -7z m73 -24 c59 -25 170 -143 151 -162 -8 -8 -28 5 -76 53
-36 35 -65 60 -65 54 0 -5 27 -36 60 -69 81 -80 63 -98 -23 -22 -60 52 -84 87
-102 145 -8 27 -6 27 55 1z m394 -21 c-16 -45 -60 -95 -186 -210 -45 -40 -82
-67 -89 -63 -7 5 33 52 107 126 65 66 114 119 109 119 -5 0 -60 -50 -121 -111
-67 -67 -116 -109 -123 -104 -18 10 205 244 254 266 62 27 66 25 49 -23z
m-134 -239 c0 -12 -27 -11 -35 1 -11 17 5 32 21 19 8 -6 14 -15 14 -20z m-211
7 c38 -20 91 -82 91 -107 0 -11 -4 -17 -10 -14 -5 3 -10 12 -10 19 0 15 -84
96 -100 96 -5 0 -10 5 -10 10 0 13 6 13 39 -4z m264 -15 c-32 -20 -93 -87 -93
-102 0 -6 -4 -7 -10 -4 -5 3 -10 11 -10 16 0 15 82 100 105 109 33 13 39 -1 8
-19z m-93 -6 c7 -9 11 -18 8 -20 -9 -10 -38 7 -38 21 0 18 14 18 30 -1z m-144
-46 c7 -12 -83 -109 -103 -109 -26 0 -20 17 24 68 44 51 65 62 79 41z m266
-36 c47 -47 60 -73 35 -73 -19 0 -110 97 -103 109 11 17 17 14 68 -36z"/>
</g>
</svg>
